<svg xmlns="http://www.w3.org/2000/svg" viewBox="0 0 852 193.88"><defs><style>.a{opacity:0.68;}.b{fill:#8d8d8d;}.c{fill:#585858;}.d{fill:#f6f6f6;}.e{fill:#323232;}</style></defs><title>hood</title><g class="a"><path class="b" d="M6.67,210.95c9.63-3.36,19.52-5.93,29-9.67,9.75-.91,18.26-5.78,27.45-8.6,4.7-2,12.79-5.29,14.84-5.18a64.06,64.06,0,0,1,15.31,2.06c9.43-.07,14.68-9.59,25.79-11.2,8.48-5.75,18.69-2.87,28.08-5.19,10.54-.81,17.68-10.37,28.62-9.76,9.38-1.1,19.39-3,27.82-7,10.4-2.62,17.9-6.39,27.72-7.59,11.14.78,27.26,6.49,36.07-1.4,7.74-4.85,16.4-7.65,24.39-12,8.71-2.53,16.56-7.24,24.58-11.22,4.41-1.23,7.76-3.95,10.75-7.14s5.64-6.85,8.62-10a64.17,64.17,0,0,0,21.9-16c4.22-5,5.93-12.4,13.71-13.73,6.18-6.14,13-11.44,19.56-17.23,2.93-9,13.72-11,21.23-15.18,4.37-1.95,8.47-2.51,12.57-3.33a33.81,33.81,0,0,1,12.06,5.29c1.38.84,11.67-.79,13.09-.14.9.45,3.59,3.16,6.53,4.41,2.69.36,6.13,1,6.51,1.75a8.62,8.62,0,0,0,1.46,2.48,141.71,141.71,0,0,1,21,11.37c4.41,1.6,8.78,3.32,13.08,5.18s8.54,3.88,12.7,6.1c7.82.63,8.54,12.75,19.72,17,7.41,7.86,17.67,11.41,25.15,19,9.34,5.16,18.85,8.65,30,7.58,7.23.33,15.79,12.36,23.41,17.25,7.51,2,15.77,1.09,22.65,6.51,8.07,6,15.59,11.31,22.78,18.44,6.07,7.47,14.78,12,24.63,9.65,10.37.16,19.71-6,30.19-2.19,12.78,1.6,24.73,6.83,36,12.9,8.6,3.19,15.2,11.93,25.18,10.54,12.12,1,24.61,1.15,35.91,6.27,8.76,3.36,18.65,1.68,26.83,6.75a204.24,204.24,0,0,1,28.79,12.92c10,3.6,24.36,7.44,31.5,13.9,8,5.86,17,9.47,25.91,13.17,9.26,8-19.46,2.79-23.69,3-17.6-.39-28.68,8.38-38.28,10.9-10.69,3.72-20,4.61-29.34-.27-10.72-3.3-22.11-3.75-33.23-4.52-6.41.63-16.85-5.61-21-.59,2.52,9.63,4.24,13.95-8.3,10.26-9.87-3.29-19.3-7.57-28.88-11.58-12.33-3.29-24.2-9.55-37.34-8.27-11.51-.72-22.91.92-34.31,1.38-12.45-.37-25.25-1.57-37.34,2.18-10,2.77-20,5.4-29.82,8.47-11.07,7.33-25,3.29-37.31,3.22-10.86-.4-21.53-1.84-31.81-5.52-18-5.62-36.58-8.43-54.94-12.31-12.12-2.61-24.33-5.35-35.29-11.39-8.23-3.69-16.17-8-24.48-11.38-6.82-4.5-17.44-12.71-23.94-3.5-8.91,4.33-19.1,4.24-26.66,11.45-5.4,9.3-14.44,14.64-25.5,12.47-10.24,2.62-20.41.06-30.48-2-11.42-2.47-22.44-6.53-34.2-7.29-10.4-2.19-21-3.31-31.51-4.4-11-1.39-22.87.43-32.94-5.25-11.68-1.65,10.09-11.7-2.76-11.64-13.17-.55-26.93-.21-39.07,5.43-9.78,4.74-23.17-2.82-31.1,5-3.39,9.23-14.54,5.5-21.95,7.28-9.6,4.77-20.36,4.66-30.7,6.38-8.53,1.72-17.25,2.79-25.63-.85-14.22-4.06-28.34-10.46-43.46-9.08-12.18,0-24.36,1.75-36.53.92,9-2.48,16.88-7.14,24.18-12.92A17.55,17.55,0,0,1,6.67,210.95Z"/><path class="c" d="M262.1,150.42c-1.62.77-4.26,1.32-8.44,1.18-7.42-.26-13.81-2.22-21.77-2.71A114.6,114.6,0,0,1,237.47,164a10.78,10.78,0,0,1-5.76,12.25l-7.2,3.6-7.2,3.6c-3.53,1.76-2.9,5-2.16,7.92.64,2.56,4.59,5.31,5.76,6.48,2.27,2.27,4.15,1.82,5.76,5a13.31,13.31,0,0,1,.72,9.36c-1,3.83-.84,5.65,1.44,7.92a14.51,14.51,0,0,0,7.2,4.32c3.62.91,4.55,1.93,7.2-.72,2-2,1.41-5.89.72-8.64-.45-1.81-4-4.71-5-5.76-3.19-3.19,2.93,0,4.32.72,3.49,1.75,4.6,2.45,8.64,1.44,3.15-.79,3.6-3.67,3.6-7.2,0-2.59-4.16-6.32-5-7.2-2.93-2.93-2.13-3.6,1.44-3.6,2.59,0,6.08,2,7.92,2.88,2.87,1.43,3.67,5.32,4.32,7.92,1.17,4.69,5.61-3.72,5.76-4.32.72-2.88,2.86-4.25,3.6-7.2.45-1.81,7.2-3.6,0-3.6-4.47,0-6.52,0-8.64-2.16-2.43-2.43-3.6-2.88-3.6-7.2,0-3.7,1.63-5.41,2.88-7.92,1.46-2.92,1.44-5.34,1.44-9.36,0-2.54-2.78-6.29-3.6-7.92C261.64,154,262.1,151.14,262.1,150.42ZM464.32,55.36c2.91,6.79-37.86,82.25-57.62,68.42,4.37-1.95,33-52.57,18-82.2a33.81,33.81,0,0,1,12.06,5.29c1.38.84,11.67-.79,13.09-.14.9.45,3.59,3.16,6.53,4.41,2.69.36,6.13,1,6.51,1.75A8.62,8.62,0,0,0,464.32,55.36ZM789.41,196.43c-2.69-.89-10.41-1.31-18.85-1.78-5.88.94-12.69-3.15-21.71-9a215.21,215.21,0,0,0-21.39-9.74c-.8,2.23.29,5.17-5.94,8.28-2.28,1.14-2.16,5.76-2.16,8.64S716,198.17,715,200c-1.23,2.46-3.79,4.06-5.76,5-2.45,1.22-2.89,5.09-3.6,7.92-.86,3.43,0,5,2.16,7.2s7.18,0,8.64-.72c1.79-.9,2.91-5.82,3.6-7.2.8-1.59,6.79-1.44,9.36-1.44,2.06,0,5.79,2.35,7.92,2.88,5.62,1.4,7.39-1.21,8.64,5,.59,3-7.46,2.39-.72,5.76a35.9,35.9,0,0,0,7.92,2.88c3.14.78,4.61,2.05,7.92,2.88l8.64,2.16c1.25.31,3.24,6.48,3.6,7.2s5.67-4.95,5.76-5c2.3-2.3,4.74-2.09,7.92-2.88,3.43-.86,6.82,1.52,9.36,2.16,3.93,1,6,.84,8.64,2.16,3.23,1.62,3.6,3.07,3.6,7.2,0,2.75-4.14,4.23-5.76,5-2.92,1.46-7,.6-9.36,0-3.14-.79-7.55,0-10.8,0a39.48,39.48,0,0,0-10.8,1.44c-2.86.82,44.23,8.72,46.82,9.36a22,22,0,0,0,9.36,0c2.88-.72-2.16-5.67-2.16-8.64a51.14,51.14,0,0,0-.72-10.08c-.7-2.81-4-3.27-5.76-5a14.62,14.62,0,0,1-4.32-7.2c-.91-3.66-3.53-5.37-5.76-6.48-2.75-1.38-4-3.08-6.48-4.32-3.67-1.84-4.81-6-6.48-9.36C795.21,205.5,791,198,789.41,196.43Z"/><path class="d" d="M498.31,71.83c-2.85-1.2-9.33-4-13.12-5.33-6.49-4.44-16-9.49-20.62-11.16-4.61,2.07-9.53,6.09-14.13,8.17-2.6,1.89-5.4,3.53-8.15,5.16-1.14,2.08-5.13,7.3,0,6.6,2.92-.73,7,.93,4,4.25-.74,3.59-7.65,4.19-3.59,8-1,4.22-9.74,2.81-8.67,8.42,1.3,5-4.34,4.41-7.22,5.28.71,5.08-6.32,5.07-6.1,9.74-.17,2.1,0,7.07,2,2.67,2.92-3.09,3.87-8.27,8.5-9.41.75,3.58-3,8.2-6.56,9.94-3.24,3.22-7.53,4.46-11,7.23-2.51,3.95-7.65,3.31-11.34,1.65-4-1.48-7.76,1-11.15,2.77-4.23.26-5.92,4.34-9.08,6.41-3.68,1.43-6.27,4.92-9.65,6.35-1.87-3.08,3-8.72-1.07-10.51-2.28,3.52-6.68,2.94-10.4,2.91-3.23.24-7.48-1-9.54,2.3,1.77,1.71,2.06,4.46-1.43,3.71-4.81-3.2-8.09,2.46-12.33,3.76-3.4,2.45-10.24.83-10.5,6.52-2,.73-5.61-5.46-7.29-.46-2.81,1.94-10.46-.26-9,5.64-.88,2.79-6.15.44-7.64,3.75-4,.67-7.83,1.79-10.76,4.82-3.65,2.9-8.66,1.61-12.71,3.67-3,.78-7.68-3.47-7.64,1.94.76,5.25-5.25,2.89-7.92,4.66-2.74,2.53-6,5.62-5.05,9.75,3,2.09,5.27,5.79,8.16,7.42a13.41,13.41,0,0,0,9.73-5.37c3.11-2.46,8.39,2.85,10.75-2.15,2.38-2.81,5.9-3.27,7.17.64,3.51,4.49-5.63,2.95-7.94,4.34-3,3.43-9,.51-10.34,6.18-.8,2.4-5.32,4.36-4.82,6.41,4.32-.82,7.91-3.75,12-5.39,4.22-1.71,8.48-4.27,13.05-4.57-1.79,3.5-1.22,9.13-5.77,10.79-2.49,1.33-10,2.1-7.89,6.08a87.09,87.09,0,0,1,7.92,8c4.65.57,8.21-3,11.77-5.33,2-2.83,2.15-7.89,6.38-8.38,3.11.36,8.55-3.18,10.24.14-1.09,5,6.08,3.74,6.94.25,4.56-.55,9.51-1.49,12.87-5-.49-3.2-1.73-8.23,3.29-8A12.42,12.42,0,0,1,352.71,186c-.83,4-3.47,8.27-7.62,9.37-5.12-.2-1.34,7.23,1.65,3.19,3.19-3.77,8.62-2,12.79-3.77,3.43-1.58,7.17-1.67,10.75-2.52,3.27-1.56.86-4.65-1.85-2.83-2.83,1-6.11,2.06-6.35-2.16,0-3.91-8-.48-7.26-2.36,4.31-2.19,8.95-3.51,13.37-5.4,4.83-.87,8.41-4.62,13-6,3.21-1.81,4.38-7.05,8.93-5.87,4.31-.7,7.84-4.57,12.55-3.5,1.72-.19,6.21,1.67,2.14,1.73-3.08-.67-9.54,2.58-4.67,5.34,4,.39,8.18-1.4,11.54-3.52a34.47,34.47,0,0,1,12.89-3.31c4.86-.81,4.16-6.1,2.14-9.11.84-4.66,6.82-5.59,10.82-5.45,4.45,1.14,7.67,5.34,11.14,8.25,2.3,3.72,7.07,4.29,10.94,5.12,4.62-1.4,7.26,2,8.58,6,2,2.53,8.83,2.42,6.56,7-3-.33-10,.86-5.13,4.64,2.73,1.45,9.22,2.41,9-2.3-.29-2.5-.82-4.83,1.22-6.61-.32-2.75-9.9-4.84-4.16-7.38,3.9-.88,8.89-7.15,4.08-9.57-2.47.7-6.24,0-3.45-3-.89-4.2-5.92,2-7.31-2.42-1.23-2.91,2-8-3.45-6.79-2,.38-4.34-.6-1.12-1.71,3.95-.47,5.59-4.46,1.59-6.53-3.39-.11-3.91-2.81-1.18-4.63,3.39-1.81,8.18-5.28,3.29-8.69-2.52-2-.85-5.85,2-3.09,3.16,2.77,7.2,3.7,9.92,6.61,3,.73,4.16-4.54,6.56-.15,1.11,3.44,6.09-1.59,4.58,3.29-1.09,4.24,1.58,8,3,11.81-2.41-.81-5.38-5.44-8.13-5.63-1.19,3.21-1.46,7.83,3.17,7.69,4.06.27,7.37,1.66,8.56,5.91,1.54,4.08-3.42,7.82.62,11.4,4.61,1.87,4.7,7.8,9.14,9.78,2.7,1.16,6.07-2,6.11,2.58,3.47,2.87,5.47,7.33,9,9.89,2.93,1.85,6.13,3,8.91.27,3.66.29,4.59,5.49,8.55,6.2,1.49,3.13,3.39,6.6,7.45,6.09,4.19-.77,6.14,3.76,9.54,4.21a3,3,0,0,0-.44-5.42c1.83-4.85,5.54,6.15,7,0,4.67.8-1.63,7,4.2,6.49,3,1.54,7.67,0,7.75,4.73,1.8,2.26.33,7.29,4.77,5.82,2.82.39,3.47,5.62,7.42,4.15a20.05,20.05,0,0,1,11-2.23c3-2,6.71,4.05,8.54,1.72-2.5-3.55-6.23-6.41-9.66-9.13-4.4-1.93-3.34-9.25-9.54-8.69-2.66-.23-6.17-3.31-5.65-5.47,3.62,2.47,8,2.33,11.8,4.29,3,3,6,6.53,8.94,9.69,2.55,2.87,9.23,0,8.94,5.59-1.72,4.13,1.64,10.4,6.54,8.81,4.38-1.32,9,2.37,13.15-.31,2.17-2.17,6.22-1.88,6.9,1.52-4.06-.23-7.77,1.28-11.64,2-3.55.22-7-3.24-10.5-.94-1.07,4.94,4.67,7.42,8.86,6.55a18.77,18.77,0,0,1,9.61,1.88c3.8.06,6.84,3.21,10.76,2.73,5.7.2,10.31,4.11,15.9,4.79,2.53.21,8.42,2.37,8.82-.86-3.79-2.8-8.75-3.77-13-6-5.31-1.43,1.1-8.13-3.46-10.51-2.63-2.12-6.39,7-5.72,1.79.78-2,2.82-4.69-.93-4.54-3.07.55-5.12-.68-6.58-3.38a102.48,102.48,0,0,0-12.27,0c-2.67-.71-2.5,1.91-3.23,3-1.78-2.17-5.38-3-6.75-4.88,2.46-1.57,5.85-4.44,1.64-6.45-1.69-2.17,4.77-2.09,2.21-5-1.93-3.52-2.87-9.67-7.83-9.8-5-1,3.67-2.13,5.41-1.12,4.53-.6,8.45,4,12.87,1.93,2.95-2.81,3.68-8.67,8.56-8.7,3.89-.22,7.49-1.33,10.26-4.06.55-1.57-1.92-4.05,1.36-2.94,4.62,1.56.84-2.91-1.29-3.69-2-3.73-5.89-5.76-8.49-9-3.74-1-5.55-3.91-7-7.36-3.87-3.08-8.44.84-12.39,1.85-3.24,1.46-7,1.47-8.36,5.34-2.67,1.2-8.84,1.19-9.61-1.14,2.2-.17,4-2.12.67-2.56-3.14,1-9.22-1.59-10,2.88.81,4.42-5,4.16-7.92,5.11-3.88-.1-3.84,8.27-8.53,4.92-3.31-2.36-7-6.57-11-2.75-3.63,2.9-8.09,3.33-12.55,3.48-4,1.24-5.48-3.51-8.13-5-5.12,0-5.57,5.85-1.06,7.36,2.38-2.32,4.77-1.94,5.42,1.56-.15,3.51,8.1,5.15,3.94,7.94-3.49-2.44-7.21-5.43-11.31-7.42-4.08-1.65-6.83-5.19-10.18-7.89a23,23,0,0,0-9.65-8.54,47.65,47.65,0,0,0-6.67-9.84c-3-2.77-.53-7.64-2-11.16-.28-2.56-6.6-4.59-1.88-6.33,2.66-1.16,8.1-5.77,8.29,0,.24,4-5.26,6.13-3.26,10.49.48,1.67,1.89,6.89,1.52,2.39-.8-3.17,2-7.31,4.75-7.88a24.27,24.27,0,0,0,3.67,11.55c1.08,4.05,2.18,8.28,5.07,11.43,1.86,3.84,6.85.13,7.19-2-2.29-3.16-6.56-4.65-8-8.42,1.14-4.77-3.37-6.27-6.12-8.8-.9-4.15,2.22-7.61,5-10.21,1.61-4.12-.86-8.34-2.93-11.8-1.17-4.32-5.18-6.61-6.77-10.61-1.18-2.71-5.89-5.12-1.57-7.58-.26-3.82-4.54-6.67-3.69-11-3.61-2-7.25-3.77-8.35-8.14-3.45-1.52-7.75-1.36-9.79-5.2C498.93,75.55,499.15,73.52,498.31,71.83ZM327.24,116.91c-1.51,1.84-7.15,6.16-10.88,7.11-8.95,4.65-20,10.27-24.53,11.27,2.37-.28,5.17-.08,6.53,2.18,1.38,1.91,2.12,4.46,4.49,5.45,2.07,1,4.61,2,6.82.75a40.85,40.85,0,0,0,5.58-3.64,19.17,19.17,0,0,0,4-5.67,6.78,6.78,0,0,1,7.1-3c3,.38,6.6-.08,8.35-2.85,1.24-1.52,4.47-1.37,4.14-4-.14-2.73,3-3.53,5-4.51,2-1.66,3.92,0,5.63,1.05,2.31.5,3.19-2.19,4.13-3.72,1.68-1.49,4.12-1.15,6.2-1.44,3.34-.1,6.93.67,10-1.07,3.27-1.42,4.92-4.72,6.51-7.69,1-2.07,2.39-4.14,2-6.54-.37-2.77,1.42-5.1,2.52-7.48,2.65-3.69,3.63-8.25,5.9-12.15,1-2.17,1.91-4.38,2.8-6.6-2.25.71-3.9,2.56-6.09,3.43a51.68,51.68,0,0,0-8.61,4.93,23.1,23.1,0,0,0-7,6.67c-2.14,3-3.9,6.32-6.79,8.69-2.33,2.27-5.26,3.75-7.71,5.84-2.2,2.06-4.34,4.43-7.34,5.3-5,2.34-9.56,6.32-15.34,6.62A24.47,24.47,0,0,1,327.24,116.91Zm115.52,44.22c.41,5.47-11.62,6.95-5,12.59,3.49,2.59,14.45-7.22,11.43,1-2.67,7-11.5,5.16-16.83,8.46-6.31,3.44-12.45-.67-18.55-2.24-3.89.18-15-6.44-6.72-8a29.56,29.56,0,0,0,20.22-7.69c4.38-.59,2.91-7.47,8.87-6C438.57,159.46,441.41,158.53,442.76,161.13Zm20.53,21.25c-5.48,1.52-11.2-5.67-14.26,1.13-6.57,2.37-14.07,9.69-20.85,4.13-3.34,3.34-15.8,2.72-9.92,9.94,5.62,3.66,14.6-.53,18.7,6.2,4.34,5.73,12.7,5.81,19.28,6.1,5.83.54,11.34,3.57,16.77,1.26,2.61,4.7,4.68-.14,1.23-2.09.75-4.18,7.51,4.69,11.14,1.83,4.73-1,17.5,3,13.81-5.55-4.7-5-6-15.26-14.93-12.26a26.92,26.92,0,0,1-17.38-4.93C465.45,186.32,465.59,183.58,463.29,182.38Zm10.44,41.78c-6.37-2.85-14-3.19-19.45-7.56-6.39-2.66-13.53-1-20.26-1.43-4.36-1.46-9.73-6.82-14.86-3.65,5.44,2.51,10.61,5,13.38,10.38,6.67,1.9,13.13,3.79,18.52,8.31,5.71,1.66,12.68,2.77,18.16.11C472.23,229.57,474.62,227.52,473.73,224.16Zm31.33-53.3c-2.12,6.51,4,12.59,10.25,14.66,4.47,3.67-4.88-2.67-6.68-2.83-2.93-2.91-13.74-10.53-11.4-1.66,4,4-5.94-2.64-8,.27-6.58,2.31,0,10.72,5.45,9.78,7.47,1.56,13.57,7.3,21.36,7.6,1.16,2.1,8.85,6.38,4.52,1.34-3.32-4.48,2-11.35-2.91-16.22C514,178.88,505.86,178.24,505.07,170.86Zm29.17,29.53c-4.49-1.81-16.05-2.36-8.89,4.86,3,3.88,11,8.5,11.29,11.77-5.06-1.76-9-7.23-13.5-8.53,1.14,2.61,3.85,5.66-.79,2.71-6-1.2.81,5.42,2.85,6.78a103,103,0,0,0,19.47,11.32c2.7,2.33,10.32,4.92,3.44,1-3.24-2.94-11.77-5.77-10.94-9.89,7,2.74,12,9.49,19.56,11.28,2.64,2.34,11.83,6.32,8.32-.86,2.32-6.33-5.2-12.54.49-17.19-.79-9.81-10.75-5.34-15.45-1.34-3.82.19-6.86,1-3.24,4.68,2.69,7.13,15.82,1.81,14.69,11.13-2.27,2.61-5.72-4.68-9.47-4a37.26,37.26,0,0,1-13.51-15.46C537.2,205.8,534.82,203.64,534.24,200.39Zm48.26,48.26c-6.74.42-4.31,10.14,1.44,5.76C588.13,252.4,586.41,249.23,582.5,248.65Zm72.39-45c-5.82-.15-6.55,9.25-12.36,3.49-1.84-3.64-6.1-5.76-9.14-8.19,5.12-1.62,9,3.81,12.13,5.78C647.19,200.54,653.22,196.86,654.89,203.63Zm-92.45-86.46a50.56,50.56,0,0,0,21.95,4.45c-2.33,3.82-6.7,7-8.37,11.42-7,1.79-14.45,3.1-21.27,4.9-2.79-1.55-3-5.86-7-6.37-1.77-7,7.37-5.27,7.87-11.3C557.31,118.58,561,119.34,562.44,117.17ZM704.08,170a16.2,16.2,0,0,1,5.52,1.2A73,73,0,0,1,721,173.52c-4.44.7-10.19,10.81-13.22,11.13C706.79,180.25,704.92,174.38,704.08,170Zm-7.77,39c-3.38,6.33-12.47,6.39-16.6,12.16-6.6.15-12.09,11.76-18.21,3.82-3.08-4.09-6.12-8.15-2.22-12.87,2.87-6.16,12.13,1,17.06,1.17,6-.76,14.6,2.29,15.77-5.44C693.57,207.34,695.08,208.39,696.31,209Zm18-13c-.95,1-10.77,6.48-6.18-.11C709.19,192.7,716.19,190.2,714.32,196.07Zm-9.72-3.24c-3.66.8-7.12,1.92-4.87,6.59C702.19,198.38,707.24,196.42,704.59,192.82Zm53.3,15.85c-4.91.73-8.72-9-1.87-10.14,8.15-.58,1.67,11.37,10.06,10.59,8.44,3.26-3.43,12.8-8.55,8.55-4.79-.73-7.35-9.83-.36-6.48,2.41,1.93,7.75,3.34,3.53-1.09A2.06,2.06,0,0,0,757.89,208.67ZM715,223.8c-3.82-1.83-15.56-1.58-9.61,4.45,4.6-.61,11.41,2.75,14.77-.13C719.47,225.92,716.38,225.6,715,223.8Zm-40.7,10.44c4.8-1.48,13-.7,18.13,2.79,3.38,1.12,12.7,5.64,3.84,5.49-7.45-.19-15.06-3.1-21.26-7l-.71-1.25Zm36.74,0c1.87-3.5,2.19,1.71-2.16,0s-12,6.7-3.89,5.94C710.68,239.22,709.2,237.74,711.07,234.24Zm3.6,1.8c-3.11,6.78,8.85,8.41,13.77,6.46,7.52,1,15.56.34,22.54,4,5.65,2.57,16,3.07,18.48-4-1.07-8.16-12.35-4.85-18-7.87-7.12-3.56-13.56,5.78-20.08-.22C725.6,231.29,721.14,240.39,714.68,236Zm81-9c-4.72,3.08-17.23-.62-10.09-6.8C790,218.38,795.31,222.63,795.71,227ZM777,240c-1.8,7.19,8.13,7.19,12.48,5.33-1.28-4.61-8.32-2.24-10.2-6.52l-1,.43L777,240Zm57.26,23.41c-2.3-4.55-13.15-5.43-7.49-12.08,6.31-3.38,12,4.55,17.6-.16,4.64-1.23,15.54.92,13.8,6.92-5.63,4.24-13,5.9-20,5.85A26.12,26.12,0,0,1,834.25,263.42Zm-2.88-51.86c.95,7.87-9.41,7.88-14.78,9-9.35.52-13.07-9.36-18.6-14.89-4.48-2.65-14.09,0-15.28-5.93,4.72-.67,8.21,6.31,13.56,2.66,7.68,1.13,15.28,2.09,22.85,3C822.73,208.58,829.55,206.27,831.37,211.55Zm-51.86-4c-2.95,1.4-5.08-2.73-6.12-5-6.48.15,3,4.83,3.49,7.79C780.06,213.27,784.62,208.75,779.5,207.59ZM588.26,141c1,3.41,3.92,8.51,8.38,10.41-1.84,2.26-7,1.47-4.42,6.52-4.44,6.87-11.49-.35-16.45-2.68-2.28.86,4.91,6.82,6.47,9.19,3.12,6.75-6.33,0-8-2.18-3.25-3.32-9.14-3.52-6.8-9.53-.83-5.31,8-2.06,7.27-8.34C576.24,138.43,583.83,139.06,588.26,141ZM186,184.54c-1.21,4.58-5.13,2.42-7.64.42-5.6,2.46-11.48,4.22-16.49-.78-7.34-4-15.41,1-22.83,2.42-3.11,2.11-15.23,1.25-7-2.47,6.79-2.36,14.41-1.94,20.75-5.75,8.3,1,15.79-5.12,24-1.8C179.65,179.79,182.41,181.6,186,184.54ZM125.1,202.19c-1.07.51-15.77.25-7.92-3.24C119.9,198.93,125.51,197.7,125.1,202.19ZM383,197.87c-1.26,1.9-9.85,8.78-7.92.36C376.48,196.15,380.85,197.14,383,197.87Zm-38.54,18c-2.87.61-4.68,10.65-8.64,4.32C330.5,214.73,341.61,212.54,344.44,215.87ZM412.51,45.52c-.38.77-.36,3.85-.36,5.76,0,1.64-.36,3.06-.36,5,0,1-2.09,2-2.52,2.88a17.36,17.36,0,0,0-1.44,4,23.12,23.12,0,0,0-.36,5,7.55,7.55,0,0,1-1.08,4.32c-.72,1.45-1.41,2.06-1.8,3.6s-1.44,2.17-1.8,3.6a23.12,23.12,0,0,0-.36,5v5.4c0,2.38-.69,2.46-1.44,4a7.42,7.42,0,0,0-1.08,4.32,25.57,25.57,0,0,0,.36,5c.43,1.71.37,3.66.72,5,.55,2.19-.41,3.29-1.44,4.32s-.82,3.27-1.08,4.32c-.49,2-.35,2.89,1.08,4,1.59,1.2,2.27,1,3.6.36.35-.17,0-4.82,0-5.4,0-1.63-.72-2.77-.72-4.68,0-1.4-.36-3.4-.36-5,0-2.32.69-2.77,1.08-4.32s1-2.16,1.44-4c.32-1.28,1.13-2.72,1.44-4,.39-1.57,0-3.77,0-5.4,0-1.1,1.15-2.78,1.44-4a13,13,0,0,0-.36-5,20.31,20.31,0,0,1-.36-5c0-2.39,1.28-4.14,2.16-6.12a10.88,10.88,0,0,1,2.16-3.24c.78-.78,1.08-2.84,1.08-4.32a7.21,7.21,0,0,1,1.08-4.32,19.93,19.93,0,0,0,1.8-4A10.19,10.19,0,0,0,415,48C414.77,47,413.54,46.14,412.51,45.52Zm7.92,21.61c-.4-1.58,3.57,1.3,4,2.88a10.12,10.12,0,0,1,0,4.68c-.33,1.32-1.66,2.24-2.16,3.24-1.47,2.94-2.75,4.79-3.6,6.48a13.53,13.53,0,0,1-2.52,2.88c-.56.56-1.26,3.23-1.44,4-.55,2.18-2.24,1.28-2.88,0-.48-1,1.4-3.2,1.8-3.6a19.38,19.38,0,0,0,1.8-3.6l1.8-3.6a17.25,17.25,0,0,0,1.8-3.6,16.1,16.1,0,0,1,1.8-3.6C421.58,71.68,420.43,68.62,420.43,67.13ZM614.55,176.26c-5.93-3.67-14.7,5.31-4,5.22C615.07,183.91,619.37,179.88,614.55,176.26ZM475.89,67.13c-2.37,7.21-25.89,10.78-13.15,18.36,5.88,1.1,5.11-7.44,8.88-1.26,5.78,1.28,12.88-10.7,13-.8,7.31,5.59,17.16-6.57,4.87-6.88-5.84.67-15.72-1.1-5.54-5.43C484.21,67.39,478,68.94,475.89,67.13Zm-18.37,33.49c-11.54-.79-.66,14,2.18,2.05,5.39,10.64,10.53-9.12,1-3.34C460.69,102,458.8,101.84,457.52,100.62Zm17.29-5c-3-11.39,22.37-5.06,7.62.68-6.18,2-10,11-.52,5.42,6.3-1.73,16.24,0,9.7-5.68,16.88-2.06,1.08,9.18-4.57,11.37-6.82,1.63-8.25,2.2-1,5.43-1.54,3.64-9.46,3.93-6.79-1.52-4.72-2.88-16.72,10.05-12-.94C472.88,107.84,473.56,100.88,474.81,95.58ZM495,130.88c.51,3.17,3.71,7.26,5.4,3.46.77,5.25,6.65,3,1.87,7.54.92,1.93-1.87,3.8.2,8-5.61,6.44,4.69,5.77,3.59,0,4,7.27-.41-5.34,6.59.73,2.37-6.15-8.75-5.57-5.76-12.61C501.37,137,501,121.93,495,130.88Zm-81.76,7.92C401.23,140.33,416.28,149.2,413.23,138.8ZM296.9,179.14c6.46-1.77,3.89,9.75,11.37,2.88,7.42-2.13,18-3.33,18.17-11.88,7.69.16,25.16-10.29,22-13.54-10.08,4.16-19.54,10.72-30.94,9.55-10.88,9.83-21.78-5.36-31.74,4.09,3.35,2.08,21-2.4,10.79,5.77l0,1.07.32,2.07Z"/><path class="e" d="M424.68,41.57c4.2,1.36,10.42,2.48,12.29,6.64.13,3-1,5.84-2.1,8.53,1.19,3.44,6.63,5.66,4.62,10.39-1.07,4.67-7.9-1.8-8.8,4.1-1.27,4.64-.52,9.64-2.17,14.22-1,5.24,1.53,11.52-2.29,16-2.7,2.73-8.23,3.16-7.12,8.37,1.58,4.4-1.73,7.71-5.78,9-2.29,2.58-9.41,4.87-5.85-.66,2.41-2.76,8.48-5.65,4.55-9.91-2.4-3.91,5.24-3.37,5.8-7.22,2.49-1.08,3.8-6.95-.35-5a79.79,79.79,0,0,1-10.3,8.91c-1.55,4.4-4.6,7.52-8.18,10.28-2.19,3.48.12,11-6.29,10.3-4.58-.08-6.78,4.5-10.09,6.77-4.31,2.18-2.72-3.64-2.53-5.67-3.94-.9-1.87-7.32,1.24-6.55.47,3.17,3.83,2.88,4.44-.29,2.47-2.91,3.79-7.16,7.68-8.56,3.54-1.56,6.44-4.16,9.92-5.82,4.31-2.53,6.57-7.17,9.5-11,2.89-2.48,7.14-3.94,8.15-8,1.53-4.15,2.33-8.58,4.41-12.49.19-3.12-3.1-5.91-.32-9,1.89-4.22,1.52-9.77-2.17-12.93-2.34-1.92-4.75-7-.19-7.7C423.88,43.87,425,42.87,424.68,41.57Zm-71.6,87.87c-3.84,1.22-3.32,7-8.46,5.86-4.92,2.63-9.25,7.46-15.16,7.53-5.85-1.1-9.5,4.41-14.93,5-4.41,2.14-5.75,7.66-11.63,7.16-5.62,2.22-10.6,5.69-16.54,7.05-4.65,1.45-10.37-.88-14.3,2.69-1.39,6-9,4.6-12.61,9-3.32,4.78.78,9.92,1.26,15-1.94,5.2-8.1,1.26-11.93,2.22-4,3.52-6,8.94-9.12,13.31-5.29,3.69-6.12-5.86-.38-5.27,6.18-2.13,6.89-10,13.15-12,7.26-.44,4.45-7.79,3.05-12.12,2.27-5,10.09-3.89,12.25-9.36.41-4.71,2.79-9.4,8.28-6.48,5.16-.82,8.57-6.27,14.24-5.11,5.91-1,11.11-4.59,16.57-7.06,5.54-3.23,12.24-3.73,17.38-7.8a53,53,0,0,0,14.66-5.88c4.55-1.12,4.18-6.51,2.69-9.65,2-3.27,7.77-1.39,3.61,2-1.93,3.65,2.49,7.6,5.57,3.79A5.81,5.81,0,0,1,353.08,129.44ZM226.67,150.33c.48,2.26,1.51,4.59.82,6.92-1.44,1.94-4.13,1.61-6.23,1.31-2-.53-5.85,1.87-3.35,3.68a13.51,13.51,0,0,0,6.37.46,2.07,2.07,0,0,1,2.69,3c-.7,1.86-.8,4.28-2.63,5.44-2.56.87-5.31.13-7.95.4-4.58.26-9.17.5-13.76.33-2.87,0-5.75.31-8.61.29-2.34-.62-3.22-3.14-4.86-4.63-1.65-1.11-4.14-.95-5.23-2.83,0-2.15,2.48-2.49,4-3,2.51-1,5.22-1.41,7.76-2.33,1.78-.75,3.38-2,5.35-2.19a11.14,11.14,0,0,0,4.85-1.84c5-2.55,10.64-3.15,16.1-3.92C223.6,151.37,225.44,151.55,226.67,150.33Zm264.71-6.48c1.93.55,4.21,1.36,5.08,3.33.62,1.63,0,3.81-2.1,3.55-1.18.1-3.69.2-2.29,2,.77,1.33,3.16,3.86.81,4.87a7,7,0,0,1-5.6-.32c-1.79-.41-4-1.16-4.44-3.2-.28-2-1.26-3.7-3.42-3.92-1.37-.75-3.69-1.77-2.81-3.74.68-2-1.91-2.62-3-3.82-1.46-.94-2.09-2.65-2.91-4.1-.39-1.72-.11-3.65-1.33-5.11s-1.71-3.41-.33-4.93c1-1.41,2.57-2.91,1.88-4.82-.36-1.76-1.54-3.38-1.55-5.15.56-2.57,3.29-.36,4.59.36,2,1,1.81,3.74,3.81,4.67,1.75.87,2.59,2.88,4.45,3.6a8.16,8.16,0,0,1,3,4.6c.41,2-.63,4.32.83,6s3.38,2.92,4.79,4.65C491,142.85,491.18,143.35,491.38,143.84Zm-18-14.41a9.58,9.58,0,0,1,3.22,5.69c.51,2,.87,4.19,2.18,5.91a9.85,9.85,0,0,0,3.07,3.68c1.37-.94.08-3.58.66-5.14.43-.79.38-3.65-.53-1.66-.36,1.55-2.38,3.5-3.18,1.1-1-1.71-1-3.7-1.13-5.59-.37-2.15-2.49-2.83-4.09-3.83l-.21-.16Zm99.76,37.82c-9.48.1-20.22-.57-12.75-12.36-1.8-15.59-9.22,4.59-7.6,9.47-13.3-.69-4.46-20.07,4.86-20.88-1.12-11.36,26.61,1.53,11.75,5.83C561.64,154.57,578.54,160,573.13,167.25Zm-18.37-50.06c-5.07-9.86-18.13,1.18-24.49-9.72-4.48-9.51-7.1-.62-.72,3.24,7.57,2,6.74,17.67,13.77,15.34C543.62,116.23,552.31,124.51,554.77,117.19Zm64.11,29.17c.17,7-16.24,12.1-13,0C610.56,148.19,615.16,143.47,618.87,146.36Zm-9-3.24C597.75,146.14,609.84,131.72,609.87,143.12Zm-9.72,2.16c-1.63-4.59-9.74-4.17-4.68,2.16C596.82,149,601.26,147.75,600.15,145.28Zm-3.24,10.8c-3.55,1.89-5.51,6.21-7.56,7.56C592.59,166.08,597,158.13,596.9,156.09Zm72.39,20.53c-12.26.7,3.71,17.35-5.42,18C662.38,188.1,655.45,173.56,669.3,176.62Zm19.45-3.6c.4,10.9-14.24,16.55-15.08,26.9,6.84,2.43,8.72-16,12.84-12.1C685.43,183.24,698,173.92,688.74,173Zm6.84-.36c1.45,7-6.94,13.94-9.23,20.81-7.08,2.89,4.89,10.49,3.11.08,1.37-8.11,6.47-9.85,4.89-1.34,3.09-3.26,3.65-25.19,7.65-12.52C708.47,174.64,701.36,170,695.59,172.66Zm5,10.8c-3,4.73,1.78,13.17,2.65,3A4.16,4.16,0,0,0,700.63,183.46Zm34.57,14.41c-1.54,9.78,10.76-1.52,13.82,7.67C750.61,198.23,741.37,194.35,735.2,197.87Zm59.07,49c6.07-8.46-10.8-9-.49-15.92,8.39-.24,16.23,3.39,10.41,10.32,1.05,6.65,13.26,7.55,6.59,15.45-6.46-.63-5.88-6.28-9.3-10.57-.91-9.35-3.13-2.6-3.63,2.21C796.53,248.87,795.22,247.33,794.27,246.85ZM395.22,213.71c-.61-6.6-1.49-14.25-7.84-18-1.48-18.45,12.14,4.63,16.67,10,12.65,2.44,11.21,16.67,25.39,20.17,9.53,8.63,22.54,10.57,34,13.27,13.13,4.52,18.53,2,12.47-11.83,7.7-12.64,27.46-3.21,34.21,6.48,12.58,4.18.23,8.76-4.68,1.44-5.66-11-7.79-.71-6.33,5.52-18.62,4.86,2.31,7.55,9.87,9.2-5.74-10.52,10.1-7.93,17.35-.31,16.62,7.29-7.58-10.92,3.08-13.4-.49-8.43-27.44-14-6.32-15.78,11.34,1.29,21.87,10.86,15.42,21.7-8,16.84,17.2,15.81,10.15-.81-8.63-11.83,5.7-6.1,10.8-2.27,2.4,4.9,24.31,7.7,12.85,10.62-13.33-9.94,1.46,5.64,8,6.06,8.09,9.38,10.54,2.82,17-3.91,3,5.9,13.46,4.91,5.7-3.25.38-16-18.11,12.68-12.58-4.37,14.68-5.75-4.77-8-5.85-16.86-2.38-13.78,11.38-4.91,13.13,2.35,15.79,13-6-24.29,7.64-9.32-1.49,18.16,21.2,3.36,19.3,20.22,12.75-1,29.33,3.77,43.58,5.4l-2.9,1.85c-12.45-.37-25.25-1.57-37.34,2.18-10,2.77-20,5.4-29.82,8.47-11.07,7.33-25,3.29-37.31,3.22-10.86-.4-21.53-1.84-31.81-5.52-18-5.62-36.58-8.43-54.94-12.31-12.12-2.61-24.33-5.35-35.29-11.39-8.23-3.69-16.17-8-24.48-11.38-6.82-4.5-17.44-12.71-23.94-3.5-8.91,4.33-19.1,4.24-26.66,11.45-5.4,9.3-14.44,14.64-25.5,12.47-10.24,2.62-20.41.06-30.48-2-11.42-2.47-22.44-6.53-34.2-7.29-10.4-2.19-21-3.31-31.51-4.4-11-1.39-22.87.43-32.94-5.25-1.42-2.44-2.16-3.79,1.7-3.57,8.9.58,18.89-4.58,20.53,6.84,18,.56,36.62-3.45,53.07,4.29,7.29-4.91,7.18-16.65,19-9.33,2.87-1.29-3.42-7,5.76-7.2.45-7,9.62,2.31,11.17-4.84-1.7,9.92,19.21,19.59,5.48,6.68-5.56-13,7.87-4.19,6,3.7,4,8.61,31.67,7.54,13.86-.73,1.6-12,24,10.27,22.2-5.53,1.61-4.48,15-.62,5.76,5.4.43,1.75,2.6,2,3.6,3.24m-309,15c-1-3.85-6.16-5.75-3.13-7.86,3.79-.37,7.58,1.94,11.31.36,5.18-1.61,10.74-.44,15.91-2.16,6.75-1.68,13.78-.75,20.66-1,3.89.36,7.48-1.39,11-2.62,1.53-.92,4.8-4.27.79-3.53-3.87.28-7.87,1.2-11.61-.31s-5.39,4.15-9.14,2.56a35.49,35.49,0,0,0-12.89-1.88c-5.7-.46-11,2.05-16.66,2.3-4.83.35-9.42,2.43-14.33,2-1.57.25-6.26-.15-2.72-1.79,4-2,8.59-.16,12.73-1.48,3.78-.86,7.86.42,11.5-1,.4-2.4-5-1.14-6.72-1.48-5.63,0-11.36-.32-16.79,1.44-2.21.84-2.52-.19-.27-.92,3.08-1.26,7.39-2.08,7.47-6.29-4.85,1.1-9.14,4.17-14.2,4.56-3.85,1-7.83,1.24-11.73,1.93-1.67,1.86-3.42,5.3-3.23,7.34C40.63,229.22,62.92,236.8,68.2,236.63Z"/></g></svg>